<svg width="14" height="23" viewBox="0 0 14 23" fill="none" xmlns="http://www.w3.org/2000/svg">
<path d="M12.8475 22.0157C13.1576 21.7056 13.3318 21.285 13.3318 20.8464C13.3318 20.4078 13.1576 19.9872 12.8475 19.6771L4.66049 11.49L12.8475 3.30297C13.1488 2.99103 13.3155 2.57324 13.3118 2.13958C13.308 1.70592 13.134 1.29109 12.8274 0.98443C12.5207 0.677774 12.1059 0.503832 11.6722 0.500063C11.2386 0.496294 10.8208 0.663002 10.5089 0.964283L1.15247 10.3207C0.842399 10.6308 0.668213 11.0514 0.668213 11.49C0.668213 11.9286 0.842399 12.3492 1.15247 12.6594L10.5089 22.0157C10.819 22.3258 11.2396 22.5 11.6782 22.5C12.1168 22.5 12.5374 22.3258 12.8475 22.0157Z" fill="#D1D2D1"/>
</svg>
