<svg width="27" height="27" viewBox="0 0 27 27" fill="none" xmlns="http://www.w3.org/2000/svg">
<g id="solar:camera-bold-duotone">
<path id="Vector" opacity="0.5" d="M11.0109 23.582H15.9892C19.4854 23.582 21.234 23.582 22.4898 22.7586C23.0318 22.4036 23.4985 21.9453 23.8632 21.4099C24.7022 20.1776 24.7022 18.4603 24.7022 15.028C24.7022 11.5956 24.7022 9.87832 23.8632 8.64608C23.4985 8.11061 23.0318 7.65229 22.4898 7.29734C21.6832 6.76747 20.6728 6.57816 19.1258 6.51094C18.3876 6.51094 17.7524 5.96204 17.6079 5.2507C17.4974 4.72965 17.2105 4.26271 16.7956 3.92879C16.3806 3.59486 15.8631 3.41445 15.3305 3.41802H11.6696C10.5628 3.41802 9.60952 4.18537 9.3922 5.2507C9.24769 5.96204 8.61252 6.51094 7.8743 6.51094C6.3284 6.57816 5.31796 6.76859 4.51028 7.29734C3.9687 7.6524 3.50239 8.11072 3.13802 8.64608C2.29785 9.87832 2.29785 11.5945 2.29785 15.028C2.29785 18.4614 2.29785 20.1765 3.1369 21.4099C3.49985 21.9431 3.96586 22.4012 4.51028 22.7586C5.76605 23.582 7.51471 23.582 11.0109 23.582Z" fill="#12DDFF"/>
<path id="Vector_2" d="M19.7239 10.444C19.6024 10.443 19.4819 10.4659 19.3692 10.5114C19.2566 10.557 19.154 10.6243 19.0673 10.7095C18.9807 10.7947 18.9116 10.8961 18.8642 11.008C18.8167 11.1198 18.7918 11.24 18.7908 11.3615C18.7908 11.8678 19.2086 12.2778 19.7239 12.2778H20.9685C21.4838 12.2778 21.9027 11.8667 21.9027 11.3615C21.9017 11.2399 21.8767 11.1197 21.8292 11.0077C21.7817 10.8958 21.7126 10.7943 21.6258 10.7091C21.539 10.6239 21.4363 10.5566 21.3235 10.5111C21.2107 10.4656 21.0901 10.4428 20.9685 10.444H19.7239Z" fill="#B2FEFF"/>
<path id="Vector_3" fill-rule="evenodd" clip-rule="evenodd" d="M13.5 10.4441C10.9235 10.4441 8.83313 12.4963 8.83313 15.0269C8.83313 17.5575 10.9223 19.6097 13.5011 19.6097C16.0776 19.6097 18.1679 17.5586 18.1679 15.028C18.1679 12.4975 16.0787 10.4441 13.5011 10.4441M13.5011 12.2779C11.9552 12.2779 10.7005 13.509 10.7005 15.0269C10.7005 16.5448 11.9552 17.777 13.5011 17.777C15.0481 17.777 16.3016 16.5459 16.3016 15.0269C16.3016 13.509 15.0481 12.2779 13.5011 12.2779Z" fill="#B2FEFF"/>
</g>
</svg>
