<svg width="78" height="29" viewBox="0 0 78 29" fill="none" xmlns="http://www.w3.org/2000/svg">
<path d="M8.57776 5.79464C8.72468 5.79464 8.87017 5.76838 9.00592 5.71736C9.14166 5.66634 9.265 5.59156 9.36889 5.49729C9.47279 5.40301 9.5552 5.29109 9.61143 5.16792C9.66765 5.04474 9.69659 4.91272 9.69659 4.7794C9.69659 4.64608 9.66765 4.51406 9.61143 4.39089C9.5552 4.26771 9.47279 4.15579 9.36889 4.06152C9.265 3.96724 9.14166 3.89246 9.00592 3.84144C8.87017 3.79042 8.72468 3.76416 8.57776 3.76416C8.28102 3.76416 7.99644 3.87112 7.78662 4.06152C7.5768 4.25191 7.45892 4.51014 7.45892 4.7794C7.45892 5.04866 7.5768 5.30689 7.78662 5.49729C7.99644 5.68768 8.28102 5.79464 8.57776 5.79464ZM12.0685 9.38453C12.2682 8.54766 12.6837 7.76566 13.2809 7.10271C13.8781 6.43975 14.64 5.91474 15.5042 5.57074C16.3683 5.22674 17.31 5.07356 18.252 5.12377C19.194 5.17397 20.1095 5.42614 20.9233 5.85957C21.7371 6.293 22.4261 6.89535 22.9336 7.61719C23.4412 8.33903 23.753 9.15978 23.8433 10.0121C23.9336 10.8644 23.7999 11.7241 23.4531 12.5204C23.1064 13.3168 22.5566 14.0272 21.8487 14.5934C22.5553 15.1597 23.1041 15.8699 23.45 16.6657C23.7958 17.4616 23.9289 18.3205 23.8383 19.1721C23.7478 20.0236 23.4361 20.8436 22.929 21.5648C22.4218 22.286 21.7335 22.8878 20.9205 23.321C20.1075 23.7543 19.1929 24.0065 18.2518 24.0571C17.3106 24.1077 16.3696 23.9553 15.506 23.6122C14.6423 23.2691 13.8805 22.7452 13.283 22.0835C12.6855 21.4217 12.2693 20.6409 12.0685 19.805C11.1812 20.0323 10.2479 20.07 9.34179 19.915C8.43572 19.76 7.58155 19.4166 6.84632 18.9117C6.11108 18.4069 5.51478 17.7543 5.10422 17.0051C4.69365 16.256 4.47998 15.4307 4.47998 14.5941C4.47998 13.7574 4.69365 12.9321 5.10422 12.183C5.51478 11.4339 6.11108 10.7813 6.84632 10.2764C7.58155 9.77153 8.43572 9.42814 9.34179 9.27316C10.2479 9.11818 11.1812 9.15719 12.0685 9.38453ZM8.57776 25.4226C8.87449 25.4226 9.15907 25.3157 9.36889 25.1253C9.57872 24.9349 9.69659 24.6767 9.69659 24.4074C9.69659 24.1381 9.57872 23.8799 9.36889 23.6895C9.15907 23.4991 8.87449 23.3922 8.57776 23.3922C8.28102 23.3922 7.99644 23.4991 7.78662 23.6895C7.5768 23.8799 7.45892 24.1381 7.45892 24.4074C7.45892 24.6767 7.5768 24.9349 7.78662 25.1253C7.99644 25.3157 8.28102 25.4226 8.57776 25.4226ZM28.3439 14.5934C28.3439 14.8627 28.226 15.1209 28.0162 15.3113C27.8064 15.5017 27.5218 15.6086 27.225 15.6086C26.9283 15.6086 26.6437 15.5017 26.4339 15.3113C26.2241 15.1209 26.1062 14.8627 26.1062 14.5934C26.1062 14.3241 26.2241 14.0659 26.4339 13.8755C26.6437 13.6851 26.9283 13.5782 27.225 13.5782C27.5218 13.5782 27.8064 13.6851 28.0162 13.8755C28.226 14.0659 28.3439 14.3241 28.3439 14.5934Z" fill="#65E9FF"/>
<path d="M37.8657 21.8734C36.4923 21.8734 35.3057 21.5934 34.3057 21.0334C33.3057 20.4734 32.5323 19.6601 31.9857 18.5934C31.4523 17.5134 31.1857 16.2001 31.1857 14.6534C31.1857 13.5067 31.359 12.4867 31.7057 11.5934C32.0657 10.6867 32.5523 9.92672 33.1657 9.31338C33.7923 8.68672 34.519 8.21338 35.3457 7.89338C36.1723 7.57338 37.0523 7.41338 37.9857 7.41338C38.7323 7.41338 39.3857 7.48005 39.9457 7.61338C40.5057 7.74672 40.9657 7.89338 41.3257 8.05338C41.6857 8.20005 41.9457 8.32672 42.1057 8.43338L41.3857 10.3934C40.999 10.18 40.5323 9.98672 39.9857 9.81338C39.439 9.64005 38.799 9.55338 38.0657 9.55338C37.2123 9.55338 36.4523 9.74672 35.7857 10.1334C35.1323 10.5067 34.619 11.0734 34.2457 11.8334C33.8723 12.5801 33.6857 13.5134 33.6857 14.6334C33.6857 15.6334 33.839 16.5201 34.1457 17.2934C34.4657 18.0534 34.9457 18.6534 35.5857 19.0934C36.239 19.5334 37.0657 19.7534 38.0657 19.7534C38.9723 19.7534 39.7057 19.6667 40.2657 19.4934C40.8257 19.3201 41.2723 19.1467 41.6057 18.9734L42.2657 20.9334C41.919 21.1334 41.3657 21.3401 40.6057 21.5534C39.8457 21.7667 38.9323 21.8734 37.8657 21.8734ZM44.2424 21.5934V6.45338L46.5424 6.07338V11.2934C46.8357 11.1867 47.1624 11.1001 47.5224 11.0334C47.8957 10.9667 48.2557 10.9334 48.6024 10.9334C49.7224 10.9334 50.589 11.1334 51.2024 11.5334C51.829 11.9334 52.269 12.4934 52.5224 13.2134C52.789 13.9334 52.9224 14.7667 52.9224 15.7134V21.5934H50.6224V16.1134C50.6224 15.3267 50.549 14.7001 50.4024 14.2334C50.269 13.7667 50.0424 13.4267 49.7224 13.2134C49.4024 13 48.9424 12.8934 48.3424 12.8934C48.129 12.8934 47.9024 12.9134 47.6624 12.9534C47.4224 12.9934 47.2024 13.0401 47.0024 13.0934C46.8157 13.1334 46.6624 13.1734 46.5424 13.2134V21.5934H44.2424ZM60.1635 21.8134C59.0435 21.8134 58.1635 21.6134 57.5235 21.2134C56.8835 20.8001 56.4301 20.2334 56.1635 19.5134C55.8968 18.7801 55.7635 17.9334 55.7635 16.9734V11.1534H58.0635V16.5934C58.0635 17.3801 58.1301 18.0134 58.2635 18.4934C58.4101 18.9601 58.6501 19.3001 58.9835 19.5134C59.3301 19.7267 59.7835 19.8334 60.3435 19.8334C60.7168 19.8334 61.0701 19.8134 61.4035 19.7734C61.7368 19.7334 61.9835 19.7001 62.1435 19.6734V11.1534H64.4235V21.2334C63.9701 21.3667 63.3701 21.4934 62.6235 21.6134C61.8901 21.7467 61.0701 21.8134 60.1635 21.8134ZM71.7846 21.8134C70.6646 21.8134 69.7846 21.6134 69.1446 21.2134C68.5046 20.8001 68.0512 20.2334 67.7846 19.5134C67.5179 18.7801 67.3846 17.9334 67.3846 16.9734V11.1534H69.6846V16.5934C69.6846 17.3801 69.7512 18.0134 69.8846 18.4934C70.0312 18.9601 70.2712 19.3001 70.6046 19.5134C70.9512 19.7267 71.4046 19.8334 71.9646 19.8334C72.3379 19.8334 72.6912 19.8134 73.0246 19.7734C73.3579 19.7334 73.6046 19.7001 73.7646 19.6734V11.1534H76.0446V21.2334C75.5912 21.3667 74.9912 21.4934 74.2446 21.6134C73.5112 21.7467 72.6912 21.8134 71.7846 21.8134Z" fill="#65E9FF"/>
</svg>
