<svg width="37" height="34" viewBox="0 0 37 34" fill="none" xmlns="http://www.w3.org/2000/svg">
<path d="M8.73326 5.97998C8.91181 5.97998 9.08861 5.94724 9.25357 5.88364C9.41853 5.82004 9.56842 5.72681 9.69467 5.60929C9.82092 5.49176 9.92107 5.35224 9.9894 5.19869C10.0577 5.04514 10.0929 4.88056 10.0929 4.71436C10.0929 4.54815 10.0577 4.38357 9.9894 4.23002C9.92107 4.07647 9.82092 3.93695 9.69467 3.81942C9.56842 3.7019 9.41853 3.60867 9.25357 3.54507C9.08861 3.48147 8.91181 3.44873 8.73326 3.44873C8.37266 3.44873 8.02683 3.58207 7.77185 3.81942C7.51687 4.05677 7.37362 4.37869 7.37362 4.71436C7.37362 5.05002 7.51687 5.37194 7.77185 5.60929C8.02683 5.84664 8.37266 5.97998 8.73326 5.97998ZM12.9753 10.4552C13.218 9.41196 13.7229 8.4371 14.4486 7.61065C15.1744 6.78419 16.1003 6.12969 17.1504 5.70086C18.2005 5.27202 19.3449 5.08106 20.4897 5.14365C21.6344 5.20624 22.7469 5.5206 23.7359 6.06092C24.7248 6.60125 25.5621 7.35215 26.1789 8.25201C26.7957 9.15188 27.1745 10.1751 27.2843 11.2376C27.394 12.3001 27.2316 13.3717 26.8102 14.3645C26.3889 15.3573 25.7206 16.2429 24.8604 16.9487C25.7192 17.6547 26.386 18.54 26.8063 19.5322C27.2266 20.5243 27.3884 21.5951 27.2783 22.6566C27.1683 23.7182 26.7895 24.7404 26.1732 25.6394C25.5569 26.5385 24.7204 27.2888 23.7325 27.8288C22.7445 28.3689 21.6331 28.6834 20.4894 28.7465C19.3457 28.8095 18.2022 28.6195 17.1526 28.1918C16.103 27.7641 15.1772 27.111 14.4512 26.286C13.7251 25.4611 13.2193 24.4876 12.9753 23.4456C11.897 23.729 10.7628 23.776 9.66174 23.5828C8.56065 23.3896 7.52265 22.9615 6.62917 22.3321C5.7357 21.7027 5.01106 20.8892 4.51213 19.9553C4.01319 19.0214 3.75354 17.9926 3.75354 16.9496C3.75354 15.9066 4.01319 14.8778 4.51213 13.9439C5.01106 13.01 5.7357 12.1964 6.62917 11.5671C7.52265 10.9377 8.56065 10.5096 9.66174 10.3164C10.7628 10.1232 11.897 10.1718 12.9753 10.4552ZM8.73326 30.4487C9.09386 30.4487 9.43969 30.3154 9.69467 30.078C9.94965 29.8407 10.0929 29.5188 10.0929 29.1831C10.0929 28.8474 9.94965 28.5255 9.69467 28.2882C9.43969 28.0508 9.09386 27.9175 8.73326 27.9175C8.37266 27.9175 8.02683 28.0508 7.77185 28.2882C7.51687 28.5255 7.37362 28.8474 7.37362 29.1831C7.37362 29.5188 7.51687 29.8407 7.77185 30.078C8.02683 30.3154 8.37266 30.4487 8.73326 30.4487ZM32.7535 16.9487C32.7535 17.2844 32.6103 17.6063 32.3553 17.8437C32.1003 18.081 31.7545 18.2144 31.3939 18.2144C31.0333 18.2144 30.6875 18.081 30.4325 17.8437C30.1775 17.6063 30.0343 17.2844 30.0343 16.9487C30.0343 16.6131 30.1775 16.2912 30.4325 16.0538C30.6875 15.8164 31.0333 15.6831 31.3939 15.6831C31.7545 15.6831 32.1003 15.8164 32.3553 16.0538C32.6103 16.2912 32.7535 16.6131 32.7535 16.9487Z" fill="white"/>
</svg>
